<mxfile host="app.diagrams.net" modified="2022-04-24T05:08:41.189Z" agent="5.0 (Windows NT 10.0; Win64; x64) AppleWebKit/537.36 (KHTML, like Gecko) Chrome/100.0.4896.60 Safari/537.36" etag="KOW575o3BS4yos6k-mQz" version="17.4.5" type="github">
  <diagram id="ong_h1_3njTfQKXmK7hK" name="第 1 页">
    <mxGraphModel dx="259" dy="519" grid="1" gridSize="10" guides="1" tooltips="1" connect="1" arrows="1" fold="1" page="1" pageScale="1" pageWidth="827" pageHeight="1169" math="0" shadow="0">
      <root>
        <mxCell id="0" />
        <mxCell id="1" parent="0" />
        <mxCell id="m2nBuhWNSJ-d-qr-2E5Z-14" style="edgeStyle=orthogonalEdgeStyle;rounded=0;orthogonalLoop=1;jettySize=auto;html=1;exitX=0.5;exitY=1;exitDx=0;exitDy=0;entryX=0.5;entryY=0;entryDx=0;entryDy=0;" edge="1" parent="1" source="m2nBuhWNSJ-d-qr-2E5Z-1" target="m2nBuhWNSJ-d-qr-2E5Z-13">
          <mxGeometry relative="1" as="geometry" />
        </mxCell>
        <mxCell id="m2nBuhWNSJ-d-qr-2E5Z-1" value="Inception" style="rounded=0;whiteSpace=wrap;html=1;" vertex="1" parent="1">
          <mxGeometry x="160" y="120" width="80" height="30" as="geometry" />
        </mxCell>
        <mxCell id="m2nBuhWNSJ-d-qr-2E5Z-2" value="" style="endArrow=classic;html=1;rounded=0;" edge="1" parent="1">
          <mxGeometry width="50" height="50" relative="1" as="geometry">
            <mxPoint x="200" y="90" as="sourcePoint" />
            <mxPoint x="199.5" y="120" as="targetPoint" />
          </mxGeometry>
        </mxCell>
        <mxCell id="m2nBuhWNSJ-d-qr-2E5Z-9" style="edgeStyle=orthogonalEdgeStyle;rounded=0;orthogonalLoop=1;jettySize=auto;html=1;exitX=0.5;exitY=1;exitDx=0;exitDy=0;entryX=0.5;entryY=0;entryDx=0;entryDy=0;" edge="1" parent="1" source="m2nBuhWNSJ-d-qr-2E5Z-3" target="m2nBuhWNSJ-d-qr-2E5Z-7">
          <mxGeometry relative="1" as="geometry" />
        </mxCell>
        <mxCell id="m2nBuhWNSJ-d-qr-2E5Z-3" value="Global pooling" style="rounded=0;whiteSpace=wrap;html=1;" vertex="1" parent="1">
          <mxGeometry x="240" y="180" width="80" height="30" as="geometry" />
        </mxCell>
        <mxCell id="m2nBuhWNSJ-d-qr-2E5Z-6" value="" style="endArrow=classic;html=1;rounded=0;exitX=0.5;exitY=1;exitDx=0;exitDy=0;entryX=0.5;entryY=0;entryDx=0;entryDy=0;" edge="1" parent="1" source="m2nBuhWNSJ-d-qr-2E5Z-1" target="m2nBuhWNSJ-d-qr-2E5Z-3">
          <mxGeometry width="50" height="50" relative="1" as="geometry">
            <mxPoint x="210" y="290" as="sourcePoint" />
            <mxPoint x="260" y="240" as="targetPoint" />
          </mxGeometry>
        </mxCell>
        <mxCell id="m2nBuhWNSJ-d-qr-2E5Z-10" style="edgeStyle=orthogonalEdgeStyle;rounded=0;orthogonalLoop=1;jettySize=auto;html=1;exitX=0.5;exitY=1;exitDx=0;exitDy=0;entryX=0.5;entryY=0;entryDx=0;entryDy=0;" edge="1" parent="1" source="m2nBuhWNSJ-d-qr-2E5Z-7" target="m2nBuhWNSJ-d-qr-2E5Z-8">
          <mxGeometry relative="1" as="geometry" />
        </mxCell>
        <mxCell id="m2nBuhWNSJ-d-qr-2E5Z-7" value="FC" style="rounded=0;whiteSpace=wrap;html=1;" vertex="1" parent="1">
          <mxGeometry x="240" y="230" width="80" height="30" as="geometry" />
        </mxCell>
        <mxCell id="m2nBuhWNSJ-d-qr-2E5Z-12" style="edgeStyle=orthogonalEdgeStyle;rounded=0;orthogonalLoop=1;jettySize=auto;html=1;exitX=0.5;exitY=1;exitDx=0;exitDy=0;entryX=0.5;entryY=0;entryDx=0;entryDy=0;" edge="1" parent="1" source="m2nBuhWNSJ-d-qr-2E5Z-8" target="m2nBuhWNSJ-d-qr-2E5Z-11">
          <mxGeometry relative="1" as="geometry" />
        </mxCell>
        <mxCell id="m2nBuhWNSJ-d-qr-2E5Z-8" value="FC" style="rounded=0;whiteSpace=wrap;html=1;" vertex="1" parent="1">
          <mxGeometry x="240" y="280" width="80" height="30" as="geometry" />
        </mxCell>
        <mxCell id="m2nBuhWNSJ-d-qr-2E5Z-11" value="Sigmoid" style="rounded=0;whiteSpace=wrap;html=1;" vertex="1" parent="1">
          <mxGeometry x="240" y="330" width="80" height="30" as="geometry" />
        </mxCell>
        <mxCell id="m2nBuhWNSJ-d-qr-2E5Z-18" style="edgeStyle=orthogonalEdgeStyle;rounded=0;orthogonalLoop=1;jettySize=auto;html=1;exitX=0.5;exitY=1;exitDx=0;exitDy=0;" edge="1" parent="1" source="m2nBuhWNSJ-d-qr-2E5Z-13">
          <mxGeometry relative="1" as="geometry">
            <mxPoint x="200" y="450" as="targetPoint" />
          </mxGeometry>
        </mxCell>
        <mxCell id="m2nBuhWNSJ-d-qr-2E5Z-13" value="Scale" style="rounded=0;whiteSpace=wrap;html=1;" vertex="1" parent="1">
          <mxGeometry x="160" y="390" width="80" height="30" as="geometry" />
        </mxCell>
        <mxCell id="m2nBuhWNSJ-d-qr-2E5Z-17" value="" style="endArrow=classic;html=1;rounded=0;exitX=0.5;exitY=1;exitDx=0;exitDy=0;entryX=0.5;entryY=0;entryDx=0;entryDy=0;" edge="1" parent="1" source="m2nBuhWNSJ-d-qr-2E5Z-11" target="m2nBuhWNSJ-d-qr-2E5Z-13">
          <mxGeometry width="50" height="50" relative="1" as="geometry">
            <mxPoint x="210" y="290" as="sourcePoint" />
            <mxPoint x="260" y="240" as="targetPoint" />
          </mxGeometry>
        </mxCell>
        <mxCell id="m2nBuhWNSJ-d-qr-2E5Z-19" value="Input" style="text;html=1;strokeColor=none;fillColor=none;align=center;verticalAlign=middle;whiteSpace=wrap;rounded=0;" vertex="1" parent="1">
          <mxGeometry x="194" y="90" width="50" height="30" as="geometry" />
        </mxCell>
        <mxCell id="m2nBuhWNSJ-d-qr-2E5Z-20" value="Output" style="text;html=1;strokeColor=none;fillColor=none;align=center;verticalAlign=middle;whiteSpace=wrap;rounded=0;" vertex="1" parent="1">
          <mxGeometry x="200" y="420" width="50" height="30" as="geometry" />
        </mxCell>
      </root>
    </mxGraphModel>
  </diagram>
</mxfile>
